<svg width="28" height="28" viewBox="0 0 28 28" fill="none" xmlns="http://www.w3.org/2000/svg">
<path fill-rule="evenodd" clip-rule="evenodd" d="M22.4069 7.24084C22.6194 7.0208 22.737 6.7261 22.7343 6.4202C22.7317 6.1143 22.609 5.82169 22.3927 5.60538C22.1764 5.38907 21.8837 5.26637 21.5778 5.26372C21.272 5.26106 20.9772 5.37865 20.7572 5.59117L13.9987 12.3497L7.24021 5.59117C7.02018 5.37865 6.72547 5.26106 6.41958 5.26372C6.11368 5.26637 5.82107 5.38907 5.60476 5.60538C5.38845 5.82169 5.26575 6.1143 5.26309 6.4202C5.26043 6.7261 5.37803 7.0208 5.59054 7.24084L12.349 13.9993L5.59054 20.7578C5.47912 20.8655 5.39024 20.9942 5.32909 21.1365C5.26795 21.2789 5.23577 21.432 5.23442 21.5869C5.23307 21.7418 5.26259 21.8954 5.32125 22.0388C5.37991 22.1822 5.46654 22.3124 5.57608 22.422C5.68563 22.5315 5.81589 22.6181 5.95926 22.6768C6.10264 22.7355 6.25627 22.765 6.41118 22.7636C6.56609 22.7623 6.71918 22.7301 6.86152 22.669C7.00385 22.6078 7.13259 22.5189 7.24021 22.4075L13.9987 15.649L20.7572 22.4075C20.9772 22.62 21.272 22.7376 21.5778 22.735C21.8837 22.7323 22.1764 22.6096 22.3927 22.3933C22.609 22.177 22.7317 21.8844 22.7343 21.5785C22.737 21.2726 22.6194 20.9779 22.4069 20.7578L15.6484 13.9993L22.4069 7.24084Z" fill="white"/>
</svg>
