<svg width="24" height="24" viewBox="0 0 24 24" fill="none" xmlns="http://www.w3.org/2000/svg">
<path d="M19.2682 5.33C17.9382 4.71 16.4982 4.26 14.9982 4C14.9718 4.00038 14.9466 4.01116 14.9282 4.03C14.7482 4.36 14.5382 4.79 14.3982 5.12C12.8072 4.88015 11.1892 4.88015 9.59816 5.12C9.45816 4.78 9.24816 4.36 9.05816 4.03C9.04816 4.01 9.01816 4 8.98816 4C7.48816 4.26 6.05816 4.71 4.71816 5.33C4.70816 5.33 4.69816 5.34 4.68816 5.35C1.96816 9.42 1.21816 13.38 1.58816 17.3C1.58816 17.32 1.59816 17.34 1.61816 17.35C3.41816 18.67 5.14816 19.47 6.85816 20C6.88816 20.01 6.91816 20 6.92816 19.98C7.32816 19.43 7.68816 18.85 7.99816 18.24C8.01816 18.2 7.99816 18.16 7.95816 18.15C7.38816 17.93 6.84816 17.67 6.31816 17.37C6.27816 17.35 6.27816 17.29 6.30816 17.26C6.41816 17.18 6.52816 17.09 6.63816 17.01C6.65816 16.99 6.68816 16.99 6.70816 17C10.1482 18.57 13.8582 18.57 17.2582 17C17.2782 16.99 17.3082 16.99 17.3282 17.01C17.4382 17.1 17.5482 17.18 17.6582 17.27C17.6982 17.3 17.6982 17.36 17.6482 17.38C17.1282 17.69 16.5782 17.94 16.0082 18.16C15.9682 18.17 15.9582 18.22 15.9682 18.25C16.2882 18.86 16.6482 19.44 17.0382 19.99C17.0682 20 17.0982 20.01 17.1282 20C18.8482 19.47 20.5782 18.67 22.3782 17.35C22.3982 17.34 22.4082 17.32 22.4082 17.3C22.8482 12.77 21.6782 8.84 19.3082 5.35C19.2982 5.34 19.2882 5.33 19.2682 5.33ZM8.51816 14.91C7.48816 14.91 6.62816 13.96 6.62816 12.79C6.62816 11.62 7.46816 10.67 8.51816 10.67C9.57817 10.67 10.4182 11.63 10.4082 12.79C10.4082 13.96 9.56816 14.91 8.51816 14.91ZM15.4882 14.91C14.4582 14.91 13.5982 13.96 13.5982 12.79C13.5982 11.62 14.4382 10.67 15.4882 10.67C16.5482 10.67 17.3882 11.63 17.3782 12.79C17.3782 13.96 16.5482 14.91 15.4882 14.91Z" fill="white"/>
</svg>
